<mxfile host="app.diagrams.net" modified="2023-05-02T08:32:23.951Z" agent="Mozilla/5.0 (Windows NT 10.0; Win64; x64) AppleWebKit/537.36 (KHTML, like Gecko) Chrome/112.0.0.0 Safari/537.36" etag="L1ehHNUg0CTrSJ6BV18q" version="21.1.4" type="device">
  <diagram id="0Zi-DuWe4pThfq4NPJX8" name="Page-1">
    <mxGraphModel dx="1400" dy="560" grid="1" gridSize="10" guides="1" tooltips="1" connect="1" arrows="1" fold="1" page="1" pageScale="1" pageWidth="827" pageHeight="1169" math="0" shadow="0">
      <root>
        <mxCell id="0" />
        <mxCell id="1" parent="0" />
        <mxCell id="J0QvIkvwXVLmpFwyTLTm-3" value="" style="rounded=0;whiteSpace=wrap;html=1;" vertex="1" parent="1">
          <mxGeometry x="150" y="10" width="130" height="40" as="geometry" />
        </mxCell>
        <mxCell id="J0QvIkvwXVLmpFwyTLTm-5" value="Main" style="text;html=1;strokeColor=none;fillColor=none;align=center;verticalAlign=middle;whiteSpace=wrap;rounded=0;" vertex="1" parent="1">
          <mxGeometry x="185" y="15" width="60" height="30" as="geometry" />
        </mxCell>
        <mxCell id="J0QvIkvwXVLmpFwyTLTm-8" value="" style="rounded=0;whiteSpace=wrap;html=1;" vertex="1" parent="1">
          <mxGeometry x="10" y="10" width="130" height="40" as="geometry" />
        </mxCell>
        <mxCell id="J0QvIkvwXVLmpFwyTLTm-9" value="User" style="text;html=1;strokeColor=none;fillColor=none;align=center;verticalAlign=middle;whiteSpace=wrap;rounded=0;" vertex="1" parent="1">
          <mxGeometry x="45" y="15" width="60" height="30" as="geometry" />
        </mxCell>
        <mxCell id="J0QvIkvwXVLmpFwyTLTm-11" value="" style="endArrow=classic;html=1;rounded=0;" edge="1" parent="1">
          <mxGeometry width="50" height="50" relative="1" as="geometry">
            <mxPoint x="80" y="80" as="sourcePoint" />
            <mxPoint x="210" y="80" as="targetPoint" />
          </mxGeometry>
        </mxCell>
        <mxCell id="J0QvIkvwXVLmpFwyTLTm-14" value="Requests the score&lt;br&gt;of his sensor(s)&amp;nbsp;" style="text;html=1;strokeColor=none;fillColor=none;align=center;verticalAlign=middle;whiteSpace=wrap;rounded=0;" vertex="1" parent="1">
          <mxGeometry x="80" y="90" width="130" height="30" as="geometry" />
        </mxCell>
        <mxCell id="J0QvIkvwXVLmpFwyTLTm-16" value="" style="rounded=0;whiteSpace=wrap;html=1;" vertex="1" parent="1">
          <mxGeometry x="300" y="10" width="130" height="40" as="geometry" />
        </mxCell>
        <mxCell id="J0QvIkvwXVLmpFwyTLTm-17" value="Service" style="text;html=1;strokeColor=none;fillColor=none;align=center;verticalAlign=middle;whiteSpace=wrap;rounded=0;" vertex="1" parent="1">
          <mxGeometry x="335" y="15" width="60" height="30" as="geometry" />
        </mxCell>
        <mxCell id="J0QvIkvwXVLmpFwyTLTm-19" value="" style="rounded=0;whiteSpace=wrap;html=1;" vertex="1" parent="1">
          <mxGeometry x="460" y="10" width="130" height="40" as="geometry" />
        </mxCell>
        <mxCell id="J0QvIkvwXVLmpFwyTLTm-20" value="User (Table)" style="text;html=1;strokeColor=none;fillColor=none;align=center;verticalAlign=middle;whiteSpace=wrap;rounded=0;" vertex="1" parent="1">
          <mxGeometry x="495" y="15" width="60" height="30" as="geometry" />
        </mxCell>
        <mxCell id="J0QvIkvwXVLmpFwyTLTm-28" value="" style="endArrow=classic;html=1;rounded=0;" edge="1" parent="1">
          <mxGeometry width="50" height="50" relative="1" as="geometry">
            <mxPoint x="220" y="80" as="sourcePoint" />
            <mxPoint x="360" y="80" as="targetPoint" />
          </mxGeometry>
        </mxCell>
        <mxCell id="J0QvIkvwXVLmpFwyTLTm-30" value="F8" style="text;html=1;strokeColor=none;fillColor=none;align=center;verticalAlign=middle;whiteSpace=wrap;rounded=0;" vertex="1" parent="1">
          <mxGeometry x="221" y="89" width="140" height="30" as="geometry" />
        </mxCell>
        <mxCell id="J0QvIkvwXVLmpFwyTLTm-31" value="" style="endArrow=classic;html=1;rounded=0;" edge="1" parent="1">
          <mxGeometry width="50" height="50" relative="1" as="geometry">
            <mxPoint x="370" y="80" as="sourcePoint" />
            <mxPoint x="520" y="80" as="targetPoint" />
          </mxGeometry>
        </mxCell>
        <mxCell id="J0QvIkvwXVLmpFwyTLTm-32" value="Request the data in the DB" style="text;html=1;strokeColor=none;fillColor=none;align=center;verticalAlign=middle;whiteSpace=wrap;rounded=0;" vertex="1" parent="1">
          <mxGeometry x="370" y="90" width="140" height="30" as="geometry" />
        </mxCell>
        <mxCell id="J0QvIkvwXVLmpFwyTLTm-34" value="" style="endArrow=none;dashed=1;html=1;dashPattern=1 3;strokeWidth=2;rounded=0;" edge="1" parent="1">
          <mxGeometry width="50" height="50" relative="1" as="geometry">
            <mxPoint x="374" y="150" as="sourcePoint" />
            <mxPoint x="514" y="150" as="targetPoint" />
          </mxGeometry>
        </mxCell>
        <mxCell id="J0QvIkvwXVLmpFwyTLTm-35" value="" style="endArrow=none;html=1;rounded=0;" edge="1" parent="1">
          <mxGeometry width="50" height="50" relative="1" as="geometry">
            <mxPoint x="370" y="150" as="sourcePoint" />
            <mxPoint x="380" y="140" as="targetPoint" />
          </mxGeometry>
        </mxCell>
        <mxCell id="J0QvIkvwXVLmpFwyTLTm-36" value="" style="endArrow=none;html=1;rounded=0;" edge="1" parent="1">
          <mxGeometry width="50" height="50" relative="1" as="geometry">
            <mxPoint x="370" y="150" as="sourcePoint" />
            <mxPoint x="380" y="160" as="targetPoint" />
            <Array as="points">
              <mxPoint x="380" y="160" />
            </Array>
          </mxGeometry>
        </mxCell>
        <mxCell id="J0QvIkvwXVLmpFwyTLTm-49" value="" style="endArrow=classic;html=1;rounded=0;" edge="1" parent="1">
          <mxGeometry width="50" height="50" relative="1" as="geometry">
            <mxPoint x="210" y="150" as="sourcePoint" />
            <mxPoint x="80" y="150" as="targetPoint" />
          </mxGeometry>
        </mxCell>
        <mxCell id="J0QvIkvwXVLmpFwyTLTm-51" value="return" style="text;html=1;strokeColor=none;fillColor=none;align=center;verticalAlign=middle;whiteSpace=wrap;rounded=0;" vertex="1" parent="1">
          <mxGeometry x="414" y="153.91" width="60" height="30" as="geometry" />
        </mxCell>
        <mxCell id="J0QvIkvwXVLmpFwyTLTm-52" value="Output" style="text;html=1;strokeColor=none;fillColor=none;align=center;verticalAlign=middle;whiteSpace=wrap;rounded=0;" vertex="1" parent="1">
          <mxGeometry x="115" y="160" width="60" height="30" as="geometry" />
        </mxCell>
        <mxCell id="J0QvIkvwXVLmpFwyTLTm-53" value="" style="endArrow=none;dashed=1;html=1;dashPattern=1 3;strokeWidth=2;rounded=0;" edge="1" parent="1">
          <mxGeometry width="50" height="50" relative="1" as="geometry">
            <mxPoint x="80" y="250" as="sourcePoint" />
            <mxPoint x="80" y="50" as="targetPoint" />
          </mxGeometry>
        </mxCell>
        <mxCell id="J0QvIkvwXVLmpFwyTLTm-55" value="" style="endArrow=none;dashed=1;html=1;dashPattern=1 3;strokeWidth=2;rounded=0;entryX=0.5;entryY=1;entryDx=0;entryDy=0;" edge="1" parent="1" target="J0QvIkvwXVLmpFwyTLTm-3">
          <mxGeometry width="50" height="50" relative="1" as="geometry">
            <mxPoint x="215" y="70" as="sourcePoint" />
            <mxPoint x="220" y="60" as="targetPoint" />
          </mxGeometry>
        </mxCell>
        <mxCell id="J0QvIkvwXVLmpFwyTLTm-56" value="" style="rounded=0;whiteSpace=wrap;html=1;rotation=-90;" vertex="1" parent="1">
          <mxGeometry x="137.19" y="142.82" width="155.63" height="10" as="geometry" />
        </mxCell>
        <mxCell id="J0QvIkvwXVLmpFwyTLTm-59" value="" style="rounded=0;whiteSpace=wrap;html=1;rotation=-90;" vertex="1" parent="1">
          <mxGeometry x="286.1" y="143.91" width="157.81" height="10" as="geometry" />
        </mxCell>
        <mxCell id="J0QvIkvwXVLmpFwyTLTm-60" value="" style="endArrow=none;dashed=1;html=1;dashPattern=1 3;strokeWidth=2;rounded=0;" edge="1" parent="1">
          <mxGeometry width="50" height="50" relative="1" as="geometry">
            <mxPoint x="364.91" y="70" as="sourcePoint" />
            <mxPoint x="365.08000000000004" y="50" as="targetPoint" />
          </mxGeometry>
        </mxCell>
        <mxCell id="J0QvIkvwXVLmpFwyTLTm-62" value="" style="endArrow=none;dashed=1;html=1;dashPattern=1 3;strokeWidth=2;rounded=0;" edge="1" parent="1">
          <mxGeometry width="50" height="50" relative="1" as="geometry">
            <mxPoint x="524.63" y="245" as="sourcePoint" />
            <mxPoint x="524.63" y="45" as="targetPoint" />
          </mxGeometry>
        </mxCell>
        <mxCell id="J0QvIkvwXVLmpFwyTLTm-64" value="" style="rounded=0;whiteSpace=wrap;html=1;rotation=-90;" vertex="1" parent="1">
          <mxGeometry x="370" y="220" width="35" height="10" as="geometry" />
        </mxCell>
        <mxCell id="J0QvIkvwXVLmpFwyTLTm-65" value="" style="endArrow=classic;html=1;rounded=0;" edge="1" parent="1">
          <mxGeometry width="50" height="50" relative="1" as="geometry">
            <mxPoint x="370" y="190" as="sourcePoint" />
            <mxPoint x="394" y="220" as="targetPoint" />
            <Array as="points">
              <mxPoint x="410" y="190" />
              <mxPoint x="410" y="220" />
            </Array>
          </mxGeometry>
        </mxCell>
        <mxCell id="J0QvIkvwXVLmpFwyTLTm-66" value="Calculate the mean with the provided data" style="text;html=1;strokeColor=none;fillColor=none;align=center;verticalAlign=middle;whiteSpace=wrap;rounded=0;" vertex="1" parent="1">
          <mxGeometry x="413" y="230" width="106" height="30" as="geometry" />
        </mxCell>
        <mxCell id="J0QvIkvwXVLmpFwyTLTm-68" value="" style="endArrow=none;dashed=1;html=1;dashPattern=1 3;strokeWidth=2;rounded=0;" edge="1" parent="1">
          <mxGeometry width="50" height="50" relative="1" as="geometry">
            <mxPoint x="221" y="220" as="sourcePoint" />
            <mxPoint x="380" y="220" as="targetPoint" />
          </mxGeometry>
        </mxCell>
        <mxCell id="J0QvIkvwXVLmpFwyTLTm-69" value="" style="endArrow=none;html=1;rounded=0;" edge="1" parent="1">
          <mxGeometry width="50" height="50" relative="1" as="geometry">
            <mxPoint x="221" y="220" as="sourcePoint" />
            <mxPoint x="231" y="210" as="targetPoint" />
          </mxGeometry>
        </mxCell>
        <mxCell id="J0QvIkvwXVLmpFwyTLTm-70" value="" style="endArrow=none;html=1;rounded=0;" edge="1" parent="1">
          <mxGeometry width="50" height="50" relative="1" as="geometry">
            <mxPoint x="221" y="220" as="sourcePoint" />
            <mxPoint x="231" y="230" as="targetPoint" />
            <Array as="points">
              <mxPoint x="231" y="230" />
            </Array>
          </mxGeometry>
        </mxCell>
        <mxCell id="J0QvIkvwXVLmpFwyTLTm-71" value="return" style="text;html=1;strokeColor=none;fillColor=none;align=center;verticalAlign=middle;whiteSpace=wrap;rounded=0;" vertex="1" parent="1">
          <mxGeometry x="261" y="220" width="69" height="30" as="geometry" />
        </mxCell>
        <mxCell id="J0QvIkvwXVLmpFwyTLTm-74" value="" style="endArrow=none;dashed=1;html=1;dashPattern=1 3;strokeWidth=2;rounded=0;" edge="1" parent="1">
          <mxGeometry width="50" height="50" relative="1" as="geometry">
            <mxPoint x="365" y="250" as="sourcePoint" />
            <mxPoint x="364.79" y="230" as="targetPoint" />
          </mxGeometry>
        </mxCell>
        <mxCell id="J0QvIkvwXVLmpFwyTLTm-75" value="" style="endArrow=none;dashed=1;html=1;dashPattern=1 3;strokeWidth=2;rounded=0;" edge="1" parent="1">
          <mxGeometry width="50" height="50" relative="1" as="geometry">
            <mxPoint x="215" y="250" as="sourcePoint" />
            <mxPoint x="214.79000000000002" y="230" as="targetPoint" />
          </mxGeometry>
        </mxCell>
      </root>
    </mxGraphModel>
  </diagram>
</mxfile>
